P1
80 24


11111111111111111111111111111111111111111111111111111111111111111111111111111111
11111111111111111111111111111111111111111111111111111111111111111111111111111111
11111111111111111111111111111111111111111111111111111111111111111111111111111111
11111111111111100000000000000000000000000000000000000000111111111111111111111111
11111111111111101111111111111111111111111111111111111110111111111111111111111111
11111111111111101111111111111111111111111111111111111110111111111111111111111111
11111111111111101111111111111111111111111111111111111110111111111111111111111111
11111111111111101111111000000000000000000000011111111110111111111000111111000111
11111111111111101111111011111111111111111111011111111110111111111000111111000111
11111111111111101111111011111111111111111111011111111110111111111101111111101111
11111111111111101111111011110000000000011111011111111110111111111101111111011111
11111111111111101111111011110111111111011111011111111110111111111101111110111111
11111111111111101111111011110100000111011111011111111110111111111101111101111111
11111111111111101111111011110111110111011111011111111110111111111100000001111111
11111111111111101111111011110000000111011111011111111110111111111011111110111111
11111111111111101111111011111111111111011111011111111110111111110110111010111111
11111111111111101111111011111111111111011111011111111110111111110111111110111111
11111111111111101111111000000000000000011111011111111110111111101111100000111111
11111111111111101111111111111111111111111111011111111110111111011111111101111111
11111111111111101111111111111111111111111111011111111110111110111111111011111111
11111111000000000000000000000000000000000000011111111110000001111111110111111111
11111110111111111111111111111111111111111111111111111111111111111111101111111111
11111101111111111111111111111111111111111111111111111111111111111111011111111111
11111000000000000000000000000000000000000000000000000000000000000000111111111111
